<svg viewBox="0 0 43 43" xmlns="http://www.w3.org/2000/svg" role="img">
<title>诗遇印章二维码：扫码安装 skill</title>
<desc>扫描跳转 ClawHub 诗遇 skill 页面（clawhub.ai/bonniegeng-max/skills/poetry-resonance）。朱印红底白色模块，中心竖排"诗遇"二字，H级容错。</desc>
<rect x="0" y="0" width="43" height="43" rx="2" fill="#A32D2D"/>
<path fill="#F4EFE3" d="M1 1h7M9 1h2M12 1h1M14 1h1M16 1h1M19 1h2M22 1h1M26 1h1M29 1h5M35 1h7M1 2h1M7 2h1M9 2h3M13 2h1M15 2h3M22 2h2M25 2h6M35 2h1M41 2h1M1 3h1M3 3h3M7 3h1M9 3h1M12 3h1M14 3h2M17 3h1M21 3h1M23 3h2M26 3h1M29 3h1M31 3h1M33 3h1M35 3h1M37 3h3M41 3h1M1 4h1M3 4h3M7 4h1M11 4h1M13 4h1M15 4h1M19 4h2M22 4h1M25 4h1M27 4h1M30 4h1M32 4h1M35 4h1M37 4h3M41 4h1M1 5h1M3 5h3M7 5h1M11 5h5M17 5h3M21 5h3M25 5h2M29 5h1M31 5h3M35 5h1M37 5h3M41 5h1M1 6h1M7 6h1M9 6h1M14 6h3M18 6h1M23 6h1M27 6h2M30 6h2M35 6h1M41 6h1M1 7h7M9 7h1M11 7h1M13 7h1M15 7h1M17 7h1M19 7h1M21 7h1M23 7h1M25 7h1M27 7h1M29 7h1M31 7h1M33 7h1M35 7h7M9 8h1M12 8h1M15 8h6M23 8h2M29 8h1M32 8h2M3 9h3M7 9h1M9 9h6M17 9h1M23 9h1M26 9h1M29 9h2M32 9h1M34 9h3M39 9h3M1 10h3M6 10h1M10 10h3M16 10h3M22 10h1M24 10h1M26 10h2M29 10h5M35 10h3M39 10h1M41 10h1M1 11h1M3 11h2M6 11h2M11 11h1M13 11h1M17 11h2M20 11h2M23 11h1M25 11h2M28 11h1M31 11h1M33 11h2M36 11h1M1 12h2M4 12h2M8 12h1M12 12h1M14 12h3M18 12h1M20 12h4M25 12h2M28 12h1M32 12h5M38 12h1M40 12h1M5 13h1M7 13h2M11 13h9M21 13h3M26 13h1M30 13h1M32 13h1M38 13h2M2 14h1M5 14h1M8 14h3M12 14h1M14 14h4M19 14h3M25 14h1M28 14h1M30 14h12M2 15h2M7 15h2M10 15h4M15 15h2M21 15h1M24 15h2M27 15h3M33 15h2M36 15h1M39 15h1M4 16h1M6 16h1M8 16h2M15 16h1M28 16h2M31 16h3M35 16h2M38 16h1M1 17h1M5 17h1M7 17h2M10 17h1M12 17h1M14 17h2M28 17h1M30 17h1M32 17h1M34 17h1M36 17h1M39 17h1M41 17h1M1 18h1M5 18h2M9 18h4M14 18h1M29 18h1M32 18h2M35 18h7M1 19h1M6 19h2M9 19h1M11 19h2M15 19h1M28 19h1M31 19h1M33 19h2M37 19h2M40 19h1M1 20h2M4 20h1M10 20h3M14 20h2M28 20h1M34 20h2M37 20h2M40 20h2M1 21h1M4 21h2M7 21h3M11 21h1M13 21h2M28 21h1M30 21h1M32 21h1M36 21h1M39 21h2M4 22h2M8 22h3M14 22h2M29 22h9M40 22h2M1 23h4M7 23h2M13 23h2M28 23h2M34 23h1M36 23h2M39 23h1M2 24h5M8 24h1M10 24h1M28 24h2M31 24h3M35 24h2M38 24h1M1 25h2M4 25h1M6 25h4M11 25h3M15 25h1M28 25h1M30 25h1M32 25h1M38 25h4M4 26h1M6 26h1M12 26h2M29 26h1M31 26h2M34 26h2M37 26h2M41 26h1M1 27h1M3 27h1M5 27h1M7 27h4M13 27h2M28 27h2M33 27h1M37 27h1M3 28h1M5 28h2M8 28h2M11 28h3M20 28h1M23 28h2M27 28h1M29 28h1M32 28h2M38 28h1M1 29h3M5 29h1M7 29h2M11 29h1M15 29h2M20 29h2M24 29h5M30 29h1M32 29h1M38 29h2M1 30h2M5 30h1M11 30h3M15 30h1M17 30h3M21 30h2M24 30h1M26 30h2M29 30h1M31 30h3M35 30h1M37 30h1M40 30h2M1 31h1M4 31h4M9 31h1M12 31h1M18 31h1M20 31h1M22 31h1M27 31h5M33 31h6M40 31h1M1 32h1M6 32h1M8 32h3M14 32h1M17 32h1M19 32h1M21 32h1M24 32h2M32 32h1M34 32h2M38 32h1M41 32h1M1 33h1M4 33h1M6 33h2M10 33h1M12 33h1M14 33h3M19 33h5M25 33h7M33 33h5M39 33h1M9 34h5M15 34h1M17 34h1M19 34h1M21 34h1M23 34h1M26 34h1M29 34h3M33 34h1M37 34h1M40 34h2M1 35h7M13 35h1M15 35h1M17 35h5M23 35h3M28 35h3M32 35h2M35 35h1M37 35h2M1 36h1M7 36h1M10 36h2M13 36h1M18 36h3M24 36h3M29 36h1M31 36h3M37 36h2M1 37h1M3 37h3M7 37h1M9 37h5M15 37h1M17 37h2M23 37h2M27 37h1M30 37h1M33 37h7M1 38h1M3 38h3M7 38h1M9 38h1M13 38h4M18 38h2M22 38h1M29 38h1M31 38h4M36 38h1M39 38h1M41 38h1M1 39h1M3 39h3M7 39h1M9 39h4M15 39h2M21 39h2M24 39h3M28 39h2M31 39h1M33 39h6M40 39h1M1 40h1M7 40h1M11 40h2M15 40h1M17 40h1M22 40h5M29 40h1M33 40h1M35 40h1M37 40h1M40 40h1M1 41h7M11 41h1M13 41h2M17 41h1M20 41h1M23 41h1M28 41h3M32 41h1M35 41h3M39 41h1"/>
<text x="21.5" y="20.3" font-size="4.6" fill="#F4EFE3" text-anchor="middle" font-family="'Songti SC','STSong',serif" font-weight="500">诗</text>
<text x="21.5" y="25.3" font-size="4.6" fill="#F4EFE3" text-anchor="middle" font-family="'Songti SC','STSong',serif" font-weight="500">遇</text>
</svg>